<svg width="50" height="50" viewBox="0 0 120 120" fill="#D5D4DE" xmlns="http://www.w3.org/2000/svg">
    <path
        d="M100 66.667c7.353 0 13.333 5.98 13.333 13.333v6.667H120V110c0 5.513-4.487 10-10 10H90c-5.513 0-10-4.487-10-10V86.667h6.667V80c0-7.353 5.98-13.333 13.333-13.333M50 0c5.667 0 11.2 1.6 15.933 4.6A28.2 28.2 0 0 1 71.2 8.733c3.067 3.067 5.3 6.68 6.753 10.613.707 1.9 1.3 3.84 1.613 5.88l.14.913.227 1.26-.033.02v.013l-3.293 2.027c-2.793 1.807-5.967 3.847-12.067 3.867-.027 0-.047.007-.073.007-1.533 0-2.88-.133-4.08-.353-.04-.007-.067-.02-.107-.027-3.52-.673-5.813-2.14-7.893-3.48-.6-.393-1.173-.76-1.76-1.1-1.747-1-3.62-1.707-6.76-1.707h-.02c-3.613.007-5.547.993-7.587 2.267-.28.18-.553.34-.84.527-.193.127-.42.26-.62.387-.393.253-.793.507-1.227.76-.28.167-.593.313-.893.473-.433.227-.873.447-1.36.653-.413.187-.86.347-1.32.507-.433.147-.907.267-1.387.393a18 18 0 0 1-1.74.387c-.073.013-.133.033-.207.047v3.6c0 1.067.067 2.133.267 3.133C28.4 51.2 38.2 60 50 60c12.2 0 22.267-9.467 23.2-21.4 3-.933 5.133-2.333 6.8-3.4v1.467c0 10.347-5.273 19.487-13.273 24.88h.307a102.6 102.6 0 0 1 18.38 4.86C82.08 69.98 80 74.733 80 80h-6.667v30c0 .087.027.167.027.26-8.933 2.347-17.027 3.073-23.36 3.073-21.593 0-38.253-7.52-48.427-13.833L0 98.52V86.247c0-8.753 5.367-16.44 13.667-19.58 6.273-2.38 12.787-4.06 19.387-5.147h.3C26.22 56.713 21.2 48.987 20.2 40c-.133-1.067-.2-2.2-.2-3.333V30c0-3.533.6-6.867 1.733-10C25.867 8.333 37 0 50 0m50 73.333c-3.673 0-6.667 2.993-6.667 6.667v6.667h13.333V80c0-3.673-2.993-6.667-6.667-6.667"
        fill-rule="evenodd" />
</svg>