<svg xmlns="http://www.w3.org/2000/svg" viewBox="4796 4749.22216796875 234 369.77783203125" width="234"
    height="369.77783203125">
    <path fill="#D5D4DE" fill-opacity="1" stroke="#D5D4DE" stroke-opacity="1" stroke-width="1" id="tSvg13f5d72fef3"
        title="Rectangle 1"
        d="M 4797 4901.186965046678 A 15.186965046678306 15.186965046678306 0 0 1 4812.186965046678 4886L 5013.813034953322 4886 A 15.186965046678306 15.186965046678306 0 0 1 5029 4901.186965046678L 5029 5102.813034953322 A 15.186965046678306 15.186965046678306 0 0 1 5013.813034953322 5118L 4812.186965046678 5118 A 15.186965046678306 15.186965046678306 0 0 1 4797 5102.813034953322Z"
        transform-origin="4913 5002" style="transform: rotate(0deg);" />
    <path fill="#D5D4DE" fill-opacity="1" stroke="#D5D4DE" stroke-opacity="1" stroke-width="1" id="tSvg15e25412bed"
        d="M 4902.940030301393 4754.095744824963 A 15 15 0 0 1 4923.059969698607 4754.095744824963L 5021.802011158817 4843.373589542754 A 15 15 0 0 1 5011.742041460209 4869.5L 4814.257958539791 4869.5 A 15 15 0 0 1 4804.197988841183 4843.373589542754Z"
        title="Polygon 1" style="" />
    <path fill="#272241" fill-opacity="1" stroke="#272241" stroke-opacity="1" stroke-width="1" id="tSvg5f76abb5eb"
        title="Rectangle 2"
        d="M 4922 4955.4902232309505 A 3.490223230950218 3.490223230950218 0 0 1 4925.4902232309505 4952L 4956.5097767690495 4952 A 3.490223230950218 3.490223230950218 0 0 1 4960 4955.4902232309505L 4960 4986.5097767690495 A 3.490223230950218 3.490223230950218 0 0 1 4956.5097767690495 4990L 4925.4902232309505 4990 A 3.490223230950218 3.490223230950218 0 0 1 4922 4986.5097767690495Z"
        transform-origin="4941 4971" style="transform: rotate(0deg);" rx="19" ry="19" />
    <path fill="#272241" fill-opacity="1" stroke="#272241" stroke-opacity="1" stroke-width="1" fill-rule="evenodd"
        display="undefined" stroke-linecap="undefined" stroke-linejoin="undefined" stroke-dasharray="undefined"
        paint-order="undefined" id="tSvge2ebc0679c" title="Rectangle 3"
        d="M 4922 5006.089543629092 A 4.089543629091886 4.089543629091886 0 0 1 4926.089543629092 5002L 4955.910456370908 5002 A 4.089543629091886 4.089543629091886 0 0 1 4960 5006.089543629092L 4960 5035.910456370908 A 4.089543629091886 4.089543629091886 0 0 1 4955.910456370908 5040L 4926.089543629092 5040 A 4.089543629091886 4.089543629091886 0 0 1 4922 5035.910456370908Z"
        transform-origin="4941 5021" rx="8.1" ry="8.1" style="transform: rotate(0deg);" />
    <path fill="#272241" fill-opacity="1" stroke="#272241" stroke-opacity="1" stroke-width="1" fill-rule="evenodd"
        display="undefined" stroke-linecap="undefined" stroke-linejoin="undefined" stroke-dasharray="undefined"
        paint-order="undefined" id="tSvg9cea5875da" title="Rectangle 5"
        d="M 4872 4955.5 A 3.5 3.5 0 0 1 4875.5 4952L 4906.5 4952 A 3.5 3.5 0 0 1 4910 4955.5L 4910 4986.5 A 3.5 3.5 0 0 1 4906.5 4990L 4875.5 4990 A 3.5 3.5 0 0 1 4872 4986.5Z"
        transform-origin="4891 4971" rx="3.5" ry="3.5" style="transform: rotate(0deg);" />
    <path fill="#272241" fill-opacity="1" stroke="#272241" stroke-opacity="1" stroke-width="1" fill-rule="evenodd"
        display="undefined" stroke-linecap="undefined" stroke-linejoin="undefined" stroke-dasharray="undefined"
        paint-order="undefined" id="tSvg103ddba55e4" title="Rectangle 6"
        d="M 4872 5006.1 A 4.1 4.1 0 0 1 4876.1 5002L 4905.9 5002 A 4.1 4.1 0 0 1 4910 5006.1L 4910 5035.9 A 4.1 4.1 0 0 1 4905.9 5040L 4876.1 5040 A 4.1 4.1 0 0 1 4872 5035.9Z"
        transform-origin="4891 5021" rx="4.1" ry="4.1" style="transform: rotate(0deg);" />
    <defs>







































































































    </defs>
</svg>