<svg width="25" height="25" viewBox="0 0 25 25" xml:space="preserve" fill="#d5d4de" xmlns="http://www.w3.org/2000/svg">
    <path
        d="M16.689 22.52c5.532 -2.329 8.13 -8.706 5.796 -14.238S13.779 0.156 8.247 2.485 0.122 11.191 2.456 16.724C4.15 20.752 8.101 23.374 12.471 23.374c1.45 0 2.886 -0.288 4.219 -0.854M3.096 12.534c0 -5.176 4.199 -9.375 9.375 -9.375s9.375 4.199 9.375 9.375 -4.199 9.375 -9.375 9.375 -9.375 -4.199 -9.375 -9.375m15.005 1.367L12.471 19.531 6.841 13.901l1.035 -1.035 3.862 3.867V6.567h1.465v10.166l3.862 -3.862z" />
</svg>